<svg width="630.154" height="512" viewBox="0 0 630.154 512" version="1.1" xmlns="http://www.w3.org/2000/svg" xmlns:xlink="http://www.w3.org/1999/xlink" xmlns:figma="http://www.figma.com/figma/ns">
<title>botto</title>
<desc>Created using Figma</desc>
<g id="Canvas" transform="matrix(2.18803 0 0 2.18803 463.863 326.017)" figma:type="canvas">
<g id="botto" style="mix-blend-mode:normal;" figma:type="frame">
<g id="Vector" style="mix-blend-mode:normal;" figma:type="vector">
<use xlink:href="#path0_fill" transform="translate(-211.004 -148)" fill="#E52929" style="mix-blend-mode:normal;"/>
<use xlink:href="#path1_fill" transform="translate(-211.004 -148)" fill="#E52929" style="mix-blend-mode:normal;"/>
<use xlink:href="#path2_stroke" transform="translate(-211.004 -148)" style="mix-blend-mode:normal;"/>
</g>
<g id="bOTTO" style="mix-blend-mode:normal;" figma:type="text">
<use xlink:href="#path3_fill" transform="translate(-203 -93)" style="mix-blend-mode:normal;"/>
</g>
</g>
</g>
<defs>
<path id="path0_fill" fill-rule="evenodd" d="M 0.0038176 4.66337C -0.0012644 3.12468 -0.00128066 1.57026 0.0038176 0L 0.0038176 4.66337ZM 187.004 0L 187.004 232L 286.004 128L 187.004 0Z"/>
<path id="path1_fill" d="M 187.004 0L 0.0038176 0L 0.0038176 4.66337C 0.796185 244.57 124.737 102.012 187.004 0Z"/>
<path id="path2_stroke" d="M 0.0038176 0L 0.0038176 -0.5L -0.494562 -0.5L -0.49618 -0.00162337L 0.0038176 0ZM 187.004 0L 187.399 -0.3059L 187.249 -0.5L 187.004 -0.5L 187.004 0ZM 286.004 128L 286.366 128.345L 286.662 128.034L 286.399 127.694L 286.004 128ZM 187.004 232L 186.799 232.456L 187.122 232.601L 187.366 232.345L 187.004 232ZM 0.0038176 148L -0.496182 148L -0.496182 148.324L -0.20106 148.456L 0.0038176 148ZM 187.004 -0.5L 0.0038176 -0.5L 0.0038176 0.5L 187.004 0.5L 187.004 -0.5ZM 285.642 127.655L 186.642 231.655L 187.366 232.345L 286.366 128.345L 285.642 127.655ZM 187.504 232L 187.504 0L 186.504 0L 186.504 232L 187.504 232ZM 186.608 0.3059L 285.608 128.306L 286.399 127.694L 187.399 -0.3059L 186.608 0.3059ZM 187.209 231.544L 0.208696 147.544L -0.20106 148.456L 186.799 232.456L 187.209 231.544ZM 0.503815 4.66172C 0.498735 3.12385 0.498719 1.57107 0.503815 0.00162337L -0.49618 -0.00162337C -0.50128 1.56945 -0.501264 3.12551 -0.49618 4.66502L 0.503815 4.66172ZM 0.503818 148L 0.503818 4.66337L -0.496182 4.66337L -0.496182 148L 0.503818 148ZM 186.577 -0.260501C 171.018 25.2304 151.619 53.2355 131.247 77.1779C 110.869 101.128 89.5705 120.945 70.2367 130.099C 60.5755 134.674 51.4494 136.564 43.1937 135.022C 34.9532 133.483 27.5062 128.51 21.2146 119.211C 8.60193 100.567 0.701881 64.6304 0.503815 4.66172L -0.49618 4.66502C -0.298062 64.6495 7.59156 100.858 20.3864 119.771C 26.7985 129.249 34.4597 134.408 43.0101 136.005C 51.545 137.599 60.8921 135.63 70.6647 131.003C 90.1985 121.754 111.61 101.8 132.008 77.826C 152.412 53.845 171.856 25.7758 187.431 0.260501L 186.577 -0.260501ZM 0.503818 4.66337L 0.503818 0L -0.496182 0L -0.496182 4.66337L 0.503818 4.66337Z"/>
<path id="path3_fill" d="M 5.096 54.824C 4.2 54.824 3.54667 54.6187 3.136 54.208C 2.72533 53.7973 2.52 53.144 2.52 52.248L 2.52 15.96C 2.52 15.4747 2.576 15.064 2.688 14.728C 2.83733 14.392 3.04267 14.112 3.304 13.888L 10.528 7.784C 10.7147 7.63467 10.9573 7.52267 11.256 7.448C 11.592 7.336 11.9467 7.28 12.32 7.28L 30.184 7.28C 34.0667 7.28 36.9227 8.04533 38.752 9.576C 40.5813 11.0693 41.496 13.3467 41.496 16.408L 41.496 19.096C 41.496 20.4027 41.3093 21.5227 40.936 22.456C 40.6 23.3893 40.0773 24.136 39.368 24.696L 39.2 24.808C 41.216 25.256 42.728 26.2267 43.736 27.72C 44.744 29.176 45.248 31.2107 45.248 33.824L 45.248 38.976C 45.248 40.656 45.0053 42.112 44.52 43.344C 44.0347 44.5387 43.3067 45.5467 42.336 46.368L 35.112 52.472C 34.1787 53.256 33.0027 53.8347 31.584 54.208C 30.1653 54.6187 28.504 54.824 26.6 54.824L 5.096 54.824ZM 33.824 48.16C 37.52 48.16 40.2453 47.4133 42 45.92C 43.792 44.4267 44.688 42.112 44.688 38.976L 44.688 33.824C 44.688 31.0987 44.1093 29.0267 42.952 27.608C 41.7947 26.1893 40.0213 25.368 37.632 25.144C 38.752 24.6587 39.5733 23.9307 40.096 22.96C 40.656 21.952 40.936 20.664 40.936 19.096L 40.936 16.408C 40.936 13.496 40.0587 11.3493 38.304 9.968C 36.5493 8.54933 33.8427 7.84 30.184 7.84L 12.32 7.84C 11.6107 7.84 11.088 8.008 10.752 8.344C 10.4533 8.64267 10.304 9.14667 10.304 9.856L 10.304 46.144C 10.304 46.8533 10.4533 47.376 10.752 47.712C 11.088 48.0107 11.6107 48.16 12.32 48.16L 33.824 48.16ZM 31.584 43.12L 16.52 43.12L 16.52 12.88L 27.888 12.88C 29.4187 12.88 30.6693 13.048 31.64 13.384C 32.6107 13.6827 33.3573 14.112 33.88 14.672C 34.4027 15.1947 34.7573 15.8107 34.944 16.52C 35.1307 17.2293 35.224 17.9947 35.224 18.816L 35.224 22.4C 35.224 23.52 35.0187 24.5467 34.608 25.48C 34.2347 26.4133 33.2453 27.0853 31.64 27.496C 33.1707 27.496 34.4213 27.664 35.392 28C 36.3627 28.2987 37.1093 28.7467 37.632 29.344C 38.1547 29.904 38.4907 30.576 38.64 31.36C 38.8267 32.144 38.92 33.0027 38.92 33.936L 38.92 37.52C 38.92 38.3413 38.8267 39.1067 38.64 39.816C 38.4533 40.488 38.0987 41.0667 37.576 41.552C 37.0907 42.0373 36.3627 42.4293 35.392 42.728C 34.4213 42.9893 33.152 43.12 31.584 43.12ZM 27.888 13.44L 17.08 13.44L 17.08 27.496L 27.888 27.496C 29.4187 27.496 30.632 27.3653 31.528 27.104C 32.424 26.8053 33.096 26.432 33.544 25.984C 34.0293 25.4987 34.328 24.9573 34.44 24.36C 34.5893 23.7253 34.664 23.072 34.664 22.4L 34.664 18.816C 34.664 17.3227 34.2347 16.0533 33.376 15.008C 32.5173 13.9627 30.688 13.44 27.888 13.44ZM 22.904 17.36L 27.664 17.36C 28.3733 17.36 28.896 17.5467 29.232 17.92C 29.6053 18.2933 29.792 18.8533 29.792 19.6L 29.792 21.168C 29.792 21.9147 29.6053 22.4747 29.232 22.848C 28.896 23.2213 28.3733 23.408 27.664 23.408L 22.904 23.408L 22.904 17.36ZM 31.64 28.056L 17.08 28.056L 17.08 42.56L 31.584 42.56C 34.384 42.56 36.2133 42.112 37.072 41.216C 37.9307 40.2827 38.36 39.0507 38.36 37.52L 38.36 33.936C 38.36 32.256 37.9307 30.856 37.072 29.736C 36.2507 28.616 34.44 28.056 31.64 28.056ZM 22.904 32.032L 30.184 32.032C 30.8933 32.032 31.416 32.2187 31.752 32.592C 32.1253 32.928 32.312 33.4693 32.312 34.216L 32.312 36.4C 32.312 37.1467 32.1253 37.7067 31.752 38.08C 31.416 38.4533 30.8933 38.64 30.184 38.64L 22.904 38.64L 22.904 32.032ZM 80.6509 52.136C 79.3443 53.256 77.5149 54.1147 75.1629 54.712C 72.8109 55.3467 69.7869 55.664 66.0909 55.664C 62.4323 55.664 59.4269 55.272 57.0749 54.488C 54.7603 53.7413 52.9309 52.7333 51.5869 51.464C 50.2803 50.1947 49.3656 48.7387 48.8429 47.096C 48.3576 45.4533 48.1149 43.7547 48.1149 42L 48.1149 24.584C 48.1149 22.8667 48.3576 21.28 48.8429 19.824C 49.3283 18.3307 50.2056 17.0613 51.4749 16.016L 58.7549 9.968C 60.0616 8.848 61.8723 7.98933 64.1869 7.392C 66.5389 6.75733 69.5816 6.44 73.3149 6.44C 76.9736 6.44 79.9603 6.73867 82.2749 7.336C 84.6269 7.93333 86.4563 8.77333 87.7629 9.856C 89.1069 10.9013 90.0216 12.1707 90.5069 13.664C 90.9923 15.12 91.2349 16.7253 91.2349 18.48L 91.2349 37.576C 91.2349 39.2933 90.9923 40.88 90.5069 42.336C 90.0216 43.792 89.1443 45.0427 87.8749 46.088L 80.6509 52.136ZM 90.6749 37.576L 90.6749 18.48C 90.6749 16.7627 90.4136 15.2133 89.8909 13.832C 89.4056 12.4133 88.5096 11.2 87.2029 10.192C 85.9336 9.184 84.1603 8.4 81.8829 7.84C 79.6429 7.28 76.7869 7 73.3149 7C 69.8429 7 66.9683 7.28 64.6909 7.84C 62.4136 8.4 60.6216 9.184 59.3149 10.192C 58.0456 11.2 57.1496 12.4133 56.6269 13.832C 56.1416 15.2133 55.8989 16.7627 55.8989 18.48L 55.8989 37.576C 55.8989 39.2933 56.1416 40.8613 56.6269 42.28C 57.1496 43.6613 58.0456 44.856 59.3149 45.864C 60.6216 46.8347 62.4136 47.6 64.6909 48.16C 66.9683 48.72 69.8429 49 73.3149 49C 76.7869 49 79.6429 48.72 81.8829 48.16C 84.1603 47.6 85.9336 46.8347 87.2029 45.864C 88.5096 44.856 89.4056 43.6613 89.8909 42.28C 90.4136 40.8613 90.6749 39.2933 90.6749 37.576ZM 84.5709 36.288C 84.5709 38.528 83.7683 40.3573 82.1629 41.776C 80.5576 43.1573 77.5709 43.848 73.2029 43.848C 68.8349 43.848 65.8669 43.1573 64.2989 41.776C 62.7309 40.3573 61.9469 38.528 61.9469 36.288L 61.9469 19.768C 61.9469 17.528 62.7309 15.7173 64.2989 14.336C 65.8669 12.9173 68.8349 12.208 73.2029 12.208C 77.5709 12.208 80.5576 12.9173 82.1629 14.336C 83.7683 15.7173 84.5709 17.528 84.5709 19.768L 84.5709 36.288ZM 62.5069 36.288C 62.5069 38.3787 63.2536 40.0773 64.7469 41.384C 66.2403 42.6533 69.0589 43.288 73.2029 43.288C 77.3469 43.288 80.1843 42.6533 81.7149 41.384C 83.2456 40.0773 84.0109 38.3787 84.0109 36.288L 84.0109 19.768C 84.0109 17.6773 83.2456 15.9973 81.7149 14.728C 80.1843 13.4213 77.3469 12.768 73.2029 12.768C 69.0589 12.768 66.2403 13.4213 64.7469 14.728C 63.2536 15.9973 62.5069 17.6773 62.5069 19.768L 62.5069 36.288ZM 68.6109 35.56L 68.6109 20.496C 68.6109 19.7867 68.8909 19.1893 69.4509 18.704C 70.0109 18.1813 71.2989 17.92 73.3149 17.92C 75.3309 17.92 76.6189 18.1813 77.1789 18.704C 77.7389 19.1893 78.0189 19.7867 78.0189 20.496L 78.0189 35.56C 78.0189 36.3067 77.7389 36.9413 77.1789 37.464C 76.6189 37.9493 75.3309 38.192 73.3149 38.192C 71.2989 38.192 70.0109 37.9493 69.4509 37.464C 68.8909 36.9413 68.6109 36.3067 68.6109 35.56ZM 69.1709 35.56C 69.1709 35.9333 69.2456 36.2693 69.3949 36.568C 69.5443 36.8293 69.8243 37.0533 70.2349 37.24L 70.2349 26.6C 70.2349 26.2267 70.1603 25.9093 70.0109 25.648C 69.8616 25.3493 69.5816 25.1253 69.1709 24.976L 69.1709 35.56ZM 114.925 54.824L 105.853 54.824C 104.957 54.824 104.303 54.6187 103.893 54.208C 103.482 53.7973 103.277 53.144 103.277 52.248L 103.277 25.312L 95.6047 25.312C 94.7087 25.312 94.0554 25.1067 93.6447 24.696C 93.234 24.2853 93.0287 23.632 93.0287 22.736L 93.0287 15.96C 93.0287 15.4747 93.0847 15.064 93.1967 14.728C 93.346 14.392 93.5514 14.112 93.8127 13.888L 101.037 7.784C 101.223 7.63467 101.466 7.52267 101.765 7.448C 102.101 7.336 102.455 7.28 102.829 7.28L 132.397 7.28C 133.293 7.28 133.946 7.48533 134.357 7.896C 134.767 8.30667 134.973 8.96 134.973 9.856L 134.973 16.632C 134.973 17.1173 134.898 17.528 134.749 17.864C 134.637 18.2 134.45 18.48 134.189 18.704L 126.909 24.752C 126.759 24.9013 126.517 25.032 126.181 25.144C 125.882 25.256 125.546 25.312 125.173 25.312L 124.725 25.312L 124.725 46.144C 124.725 46.6293 124.65 47.04 124.501 47.376C 124.389 47.712 124.202 47.992 123.941 48.216L 116.661 54.264C 116.511 54.4133 116.269 54.544 115.933 54.656C 115.634 54.768 115.298 54.824 114.925 54.824ZM 122.149 48.16C 122.858 48.16 123.362 48.0107 123.661 47.712C 123.997 47.376 124.165 46.8533 124.165 46.144L 124.165 18.648L 132.397 18.648C 133.106 18.648 133.61 18.4987 133.909 18.2C 134.245 17.864 134.413 17.3413 134.413 16.632L 134.413 9.856C 134.413 9.14667 134.245 8.64267 133.909 8.344C 133.61 8.008 133.106 7.84 132.397 7.84L 102.829 7.84C 102.119 7.84 101.597 8.008 101.261 8.344C 100.962 8.64267 100.813 9.14667 100.813 9.856L 100.813 16.632C 100.813 17.3413 100.962 17.864 101.261 18.2C 101.597 18.4987 102.119 18.648 102.829 18.648L 111.061 18.648L 111.061 46.144C 111.061 46.8533 111.21 47.376 111.509 47.712C 111.845 48.0107 112.367 48.16 113.077 48.16L 122.149 48.16ZM 117.333 43.12L 117.333 13.44L 105.853 13.44L 105.853 12.88L 129.373 12.88L 129.373 13.44L 117.893 13.44L 117.893 43.12L 117.333 43.12ZM 157.253 54.824L 148.181 54.824C 147.285 54.824 146.631 54.6187 146.221 54.208C 145.81 53.7973 145.605 53.144 145.605 52.248L 145.605 25.312L 137.933 25.312C 137.037 25.312 136.383 25.1067 135.973 24.696C 135.562 24.2853 135.357 23.632 135.357 22.736L 135.357 15.96C 135.357 15.4747 135.413 15.064 135.525 14.728C 135.674 14.392 135.879 14.112 136.141 13.888L 143.365 7.784C 143.551 7.63467 143.794 7.52267 144.093 7.448C 144.429 7.336 144.783 7.28 145.157 7.28L 174.725 7.28C 175.621 7.28 176.274 7.48533 176.685 7.896C 177.095 8.30667 177.301 8.96 177.301 9.856L 177.301 16.632C 177.301 17.1173 177.226 17.528 177.077 17.864C 176.965 18.2 176.778 18.48 176.517 18.704L 169.237 24.752C 169.087 24.9013 168.845 25.032 168.509 25.144C 168.21 25.256 167.874 25.312 167.501 25.312L 167.053 25.312L 167.053 46.144C 167.053 46.6293 166.978 47.04 166.829 47.376C 166.717 47.712 166.53 47.992 166.269 48.216L 158.989 54.264C 158.839 54.4133 158.597 54.544 158.261 54.656C 157.962 54.768 157.626 54.824 157.253 54.824ZM 164.477 48.16C 165.186 48.16 165.69 48.0107 165.989 47.712C 166.325 47.376 166.493 46.8533 166.493 46.144L 166.493 18.648L 174.725 18.648C 175.434 18.648 175.938 18.4987 176.237 18.2C 176.573 17.864 176.741 17.3413 176.741 16.632L 176.741 9.856C 176.741 9.14667 176.573 8.64267 176.237 8.344C 175.938 8.008 175.434 7.84 174.725 7.84L 145.157 7.84C 144.447 7.84 143.925 8.008 143.589 8.344C 143.29 8.64267 143.141 9.14667 143.141 9.856L 143.141 16.632C 143.141 17.3413 143.29 17.864 143.589 18.2C 143.925 18.4987 144.447 18.648 145.157 18.648L 153.389 18.648L 153.389 46.144C 153.389 46.8533 153.538 47.376 153.837 47.712C 154.173 48.0107 154.695 48.16 155.405 48.16L 164.477 48.16ZM 159.661 43.12L 159.661 13.44L 148.181 13.44L 148.181 12.88L 171.701 12.88L 171.701 13.44L 160.221 13.44L 160.221 43.12L 159.661 43.12ZM 211.628 52.136C 210.321 53.256 208.492 54.1147 206.14 54.712C 203.787 55.3467 200.764 55.664 197.067 55.664C 193.409 55.664 190.404 55.272 188.052 54.488C 185.737 53.7413 183.907 52.7333 182.564 51.464C 181.257 50.1947 180.342 48.7387 179.819 47.096C 179.334 45.4533 179.092 43.7547 179.092 42L 179.092 24.584C 179.092 22.8667 179.334 21.28 179.819 19.824C 180.305 18.3307 181.182 17.0613 182.451 16.016L 189.732 9.968C 191.038 8.848 192.849 7.98933 195.164 7.392C 197.516 6.75733 200.558 6.44 204.291 6.44C 207.95 6.44 210.937 6.73867 213.251 7.336C 215.603 7.93333 217.433 8.77333 218.739 9.856C 220.083 10.9013 220.998 12.1707 221.484 13.664C 221.969 15.12 222.212 16.7253 222.212 18.48L 222.212 37.576C 222.212 39.2933 221.969 40.88 221.484 42.336C 220.998 43.792 220.121 45.0427 218.852 46.088L 211.628 52.136ZM 221.652 37.576L 221.652 18.48C 221.652 16.7627 221.39 15.2133 220.867 13.832C 220.382 12.4133 219.486 11.2 218.179 10.192C 216.91 9.184 215.137 8.4 212.86 7.84C 210.62 7.28 207.764 7 204.291 7C 200.819 7 197.945 7.28 195.668 7.84C 193.39 8.4 191.598 9.184 190.291 10.192C 189.022 11.2 188.126 12.4133 187.604 13.832C 187.118 15.2133 186.875 16.7627 186.875 18.48L 186.875 37.576C 186.875 39.2933 187.118 40.8613 187.604 42.28C 188.126 43.6613 189.022 44.856 190.291 45.864C 191.598 46.8347 193.39 47.6 195.668 48.16C 197.945 48.72 200.819 49 204.291 49C 207.764 49 210.62 48.72 212.86 48.16C 215.137 47.6 216.91 46.8347 218.179 45.864C 219.486 44.856 220.382 43.6613 220.867 42.28C 221.39 40.8613 221.652 39.2933 221.652 37.576ZM 215.548 36.288C 215.548 38.528 214.745 40.3573 213.14 41.776C 211.534 43.1573 208.548 43.848 204.179 43.848C 199.812 43.848 196.844 43.1573 195.276 41.776C 193.707 40.3573 192.923 38.528 192.923 36.288L 192.923 19.768C 192.923 17.528 193.707 15.7173 195.276 14.336C 196.844 12.9173 199.812 12.208 204.179 12.208C 208.548 12.208 211.534 12.9173 213.14 14.336C 214.745 15.7173 215.548 17.528 215.548 19.768L 215.548 36.288ZM 193.484 36.288C 193.484 38.3787 194.23 40.0773 195.724 41.384C 197.217 42.6533 200.035 43.288 204.179 43.288C 208.323 43.288 211.161 42.6533 212.692 41.384C 214.222 40.0773 214.988 38.3787 214.988 36.288L 214.988 19.768C 214.988 17.6773 214.222 15.9973 212.692 14.728C 211.161 13.4213 208.323 12.768 204.179 12.768C 200.035 12.768 197.217 13.4213 195.724 14.728C 194.23 15.9973 193.484 17.6773 193.484 19.768L 193.484 36.288ZM 199.588 35.56L 199.588 20.496C 199.588 19.7867 199.868 19.1893 200.427 18.704C 200.988 18.1813 202.276 17.92 204.291 17.92C 206.307 17.92 207.595 18.1813 208.155 18.704C 208.716 19.1893 208.996 19.7867 208.996 20.496L 208.996 35.56C 208.996 36.3067 208.716 36.9413 208.155 37.464C 207.595 37.9493 206.307 38.192 204.291 38.192C 202.276 38.192 200.988 37.9493 200.427 37.464C 199.868 36.9413 199.588 36.3067 199.588 35.56ZM 200.147 35.56C 200.147 35.9333 200.222 36.2693 200.372 36.568C 200.521 36.8293 200.801 37.0533 201.211 37.24L 201.211 26.6C 201.211 26.2267 201.137 25.9093 200.988 25.648C 200.838 25.3493 200.558 25.1253 200.147 24.976L 200.147 35.56Z"/>
</defs>
</svg>
